<svg width="357" height="193" viewBox="0 0 357 193" fill="none" xmlns="http://www.w3.org/2000/svg">
<rect x="1" y="1" width="355" height="191" fill="white" stroke="black" stroke-width="2"/>
<path d="M90.5 47.75V35.5H101V37.25H102.75V40.75H101V42.5H102.75V46H101V47.75H90.5ZM94 40.75H99.25V37.25H94V40.75ZM94 46H99.25V42.5H94V46ZM108 47.75V46H106.25V44.25H104.5V39H106.25V37.25H108V35.5H115V37.25H116.75V39H113.25V37.25H109.75V39H108V44.25H109.75V46H113.25V44.25H116.75V46H115V47.75H108ZM123.75 47.75V37.25H120.25V35.5H130.75V37.25H127.25V47.75H123.75ZM132.5 47.75V39H134.25V37.25H136V35.5H141.25V37.25H143V39H144.75V47.75H141.25V44.25H136V47.75H132.5ZM136 42.5H141.25V39H139.5V37.25H137.75V39H136V42.5ZM146.5 47.75V35.5H157V37.25H158.75V40.75H157V42.5H158.75V46H157V47.75H146.5ZM150 40.75H155.25V37.25H150V40.75ZM150 46H155.25V42.5H150V46ZM160.5 47.75V35.5H164V39H171V40.75H172.75V46H171V47.75H160.5ZM164 46H169.25V40.75H164V46ZM179.75 47.75V37.25H176.25V35.5H186.75V37.25H183.25V47.75H179.75ZM188.5 47.75V35.5H200.75V37.25H192V40.75H199V42.5H192V46H200.75V47.75H188.5ZM90.5 70.5V67H92.25V63.5H94V56.5H102.75V67H104.5V70.5H101V68.75H94V70.5H90.5ZM95.75 67H99.25V58.25H95.75V67ZM104.5 68.75V56.5H108V63.5H109.75V61.75H111.5V60H113.25V56.5H116.75V68.75H113.25V63.5H111.5V65.25H109.75V67H108V68.75H104.5ZM122 68.75V67H120.25V65.25H118.5V60H120.25V58.25H122V56.5H129V58.25H130.75V60H127.25V58.25H123.75V60H122V65.25H123.75V67H127.25V65.25H130.75V67H129V68.75H122ZM137.75 60H139.5V61.75H141.25V63.5H143V67H144.75V68.75H141.25V67H139.5V63.5H136V68.75H132.5V56.5H136V61.75H137.75V60ZM144.75 56.5V58.25H143V60H139.5V58.25H141.25V56.5H144.75ZM146.5 68.75V56.5H158.75V58.25H150V61.75H157V63.5H150V67H158.75V68.75H146.5ZM165.75 68.75V58.25H162.25V56.5H172.75V58.25H169.25V68.75H165.75ZM176.25 68.75V67H174.5V65.25H178V67H183.25V63.5H176.25V61.75H174.5V56.5H178V61.75H183.25V56.5H186.75V67H185V68.75H176.25ZM190.25 70.5V68.75H192V65.25H195.5V68.75H193.75V70.5H190.25ZM225.25 68.75V63.5H218.25V61.75H216.5V56.5H220V61.75H225.25V56.5H228.75V68.75H225.25ZM235.75 68.75V58.25H232.25V56.5H242.75V58.25H239.25V68.75H235.75ZM246.25 68.75V67H244.5V58.25H246.25V56.5H255V58.25H256.75V67H255V68.75H246.25ZM248 67H253.25V58.25H248V67ZM258.5 68.75V56.5H269V58.25H262V61.75H269V63.5H270.75V67H269V68.75H258.5ZM262 67H267.25V63.5H262V67ZM272.5 68.75V56.5H276V60H279.5V68.75H272.5ZM281.25 68.75V56.5H284.75V68.75H281.25ZM276 67H277.75V61.75H276V67ZM90.5 89.75V77.5H102.75V89.75H99.25V79.25H94V89.75H90.5ZM104.5 89.75V77.5H115V79.25H116.75V84.5H115V86.25H108V89.75H104.5ZM108 84.5H113.25V79.25H108V84.5ZM120.25 89.75V88H118.5V79.25H120.25V77.5H129V79.25H130.75V88H129V89.75H120.25ZM122 88H127.25V79.25H122V88ZM132.5 91.5V88H134.25V84.5H136V77.5H144.75V88H146.5V91.5H143V89.75H136V91.5H132.5ZM137.75 88H141.25V79.25H137.75V88ZM148.25 89.75V88H146.5V79.25H148.25V77.5H157V79.25H158.75V88H157V89.75H148.25ZM150 88H155.25V79.25H150V88ZM160.5 89.75V86.25H162.25V84.5H164V77.5H172.75V89.75H169.25V79.25H165.75V88H164V89.75H160.5ZM178 77.5V82.75H176.25V81H174.5V77.5H178ZM181.5 82.75H183.25V84.5H181.5V89.75H179.75V84.5H178V82.75H179.75V77.5H181.5V82.75ZM186.75 77.5V81H185V82.75H183.25V77.5H186.75ZM176.25 84.5H178V89.75H174.5V86.25H176.25V84.5ZM183.25 89.75V84.5H185V86.25H186.75V89.75H183.25ZM188.5 89.75V77.5H192V84.5H193.75V82.75H195.5V81H197.25V77.5H200.75V89.75H197.25V84.5H195.5V86.25H193.75V88H192V89.75H188.5ZM207.75 89.75V79.25H204.25V77.5H214.75V79.25H211.25V89.75H207.75ZM216.5 89.75V77.5H220V81H227V82.75H228.75V88H227V89.75H216.5ZM220 88H225.25V82.75H220V88Z" fill="black"/>
<rect x="31.5" y="43.5" width="3" height="3" fill="black"/>
<rect x="31.5" y="46.5" width="3" height="3" fill="black"/>
<rect x="31.5" y="49.5" width="3" height="3" fill="black"/>
<rect x="31.5" y="52.5" width="3" height="3" fill="black"/>
<rect x="31.5" y="55.5" width="3" height="3" fill="black"/>
<rect x="31.5" y="58.5" width="3" height="3" fill="black"/>
<rect x="31.5" y="61.5" width="3" height="3" fill="black"/>
<rect x="31.5" y="64.5" width="3" height="3" fill="black"/>
<rect x="31.5" y="67.5" width="3" height="3" fill="black"/>
<rect x="31.5" y="70.5" width="3" height="3" fill="black"/>
<rect x="31.5" y="73.5" width="3" height="3" fill="black"/>
<rect x="31.5" y="76.5" width="3" height="3" fill="black"/>
<rect x="31.5" y="79.5" width="3" height="3" fill="black"/>
<rect x="64.5" y="43.5" width="3" height="3" transform="rotate(90 64.5 43.5)" fill="black"/>
<rect x="61.5" y="43.5" width="3" height="3" transform="rotate(90 61.5 43.5)" fill="black"/>
<rect x="58.5" y="43.5" width="3" height="3" transform="rotate(90 58.5 43.5)" fill="black"/>
<rect x="55.5" y="43.5" width="3" height="3" transform="rotate(90 55.5 43.5)" fill="black"/>
<rect x="52.5" y="43.5" width="3" height="3" transform="rotate(90 52.5 43.5)" fill="black"/>
<rect x="49.5" y="43.5" width="3" height="3" transform="rotate(90 49.5 43.5)" fill="black"/>
<rect x="46.5" y="43.5" width="3" height="3" transform="rotate(90 46.5 43.5)" fill="black"/>
<rect x="43.5" y="43.5" width="3" height="3" transform="rotate(90 43.5 43.5)" fill="black"/>
<rect x="40.5" y="43.5" width="3" height="3" transform="rotate(90 40.5 43.5)" fill="black"/>
<rect x="37.5" y="43.5" width="3" height="3" transform="rotate(90 37.5 43.5)" fill="black"/>
<rect x="67.5" y="46.5" width="3" height="3" transform="rotate(90 67.5 46.5)" fill="black"/>
<rect x="40.5" y="49.5" width="3" height="3" transform="rotate(90 40.5 49.5)" fill="black"/>
<rect x="40.5" y="46.5" width="3" height="3" transform="rotate(90 40.5 46.5)" fill="black"/>
<rect x="40.5" y="52.5" width="3" height="3" transform="rotate(90 40.5 52.5)" fill="black"/>
<rect x="61.5" y="49.5" width="3" height="3" transform="rotate(90 61.5 49.5)" fill="black"/>
<rect x="61.5" y="46.5" width="3" height="3" transform="rotate(90 61.5 46.5)" fill="black"/>
<rect x="61.5" y="52.5" width="3" height="3" transform="rotate(90 61.5 52.5)" fill="black"/>
<rect x="55.5" y="49.5" width="3" height="3" transform="rotate(90 55.5 49.5)" fill="black"/>
<rect x="55.5" y="46.5" width="3" height="3" transform="rotate(90 55.5 46.5)" fill="black"/>
<rect x="55.5" y="52.5" width="3" height="3" transform="rotate(90 55.5 52.5)" fill="black"/>
<rect x="61.5" y="55.5" width="3" height="3" transform="rotate(90 61.5 55.5)" fill="black"/>
<rect x="58.5" y="55.5" width="3" height="3" transform="rotate(90 58.5 55.5)" fill="black"/>
<rect x="55.5" y="55.5" width="3" height="3" transform="rotate(90 55.5 55.5)" fill="black"/>
<rect x="52.5" y="55.5" width="3" height="3" transform="rotate(90 52.5 55.5)" fill="black"/>
<rect x="49.5" y="55.5" width="3" height="3" transform="rotate(90 49.5 55.5)" fill="black"/>
<rect x="46.5" y="55.5" width="3" height="3" transform="rotate(90 46.5 55.5)" fill="black"/>
<rect x="43.5" y="55.5" width="3" height="3" transform="rotate(90 43.5 55.5)" fill="black"/>
<rect x="40.5" y="55.5" width="3" height="3" transform="rotate(90 40.5 55.5)" fill="black"/>
<rect x="64.5" y="64.5" width="3" height="3" transform="rotate(90 64.5 64.5)" fill="black"/>
<rect x="61.5" y="64.5" width="3" height="3" transform="rotate(90 61.5 64.5)" fill="black"/>
<rect x="58.5" y="64.5" width="3" height="3" transform="rotate(90 58.5 64.5)" fill="black"/>
<rect x="55.5" y="64.5" width="3" height="3" transform="rotate(90 55.5 64.5)" fill="black"/>
<rect x="52.5" y="64.5" width="3" height="3" transform="rotate(90 52.5 64.5)" fill="black"/>
<rect x="49.5" y="64.5" width="3" height="3" transform="rotate(90 49.5 64.5)" fill="black"/>
<rect x="46.5" y="64.5" width="3" height="3" transform="rotate(90 46.5 64.5)" fill="black"/>
<rect x="43.5" y="64.5" width="3" height="3" transform="rotate(90 43.5 64.5)" fill="black"/>
<rect x="40.5" y="64.5" width="3" height="3" transform="rotate(90 40.5 64.5)" fill="black"/>
<rect x="64.5" y="67.5" width="3" height="3" transform="rotate(90 64.5 67.5)" fill="black"/>
<rect x="40.5" y="67.5" width="3" height="3" transform="rotate(90 40.5 67.5)" fill="black"/>
<rect x="64.5" y="70.5" width="3" height="3" transform="rotate(90 64.5 70.5)" fill="black"/>
<rect x="40.5" y="70.5" width="3" height="3" transform="rotate(90 40.5 70.5)" fill="black"/>
<rect x="64.5" y="73.5" width="3" height="3" transform="rotate(90 64.5 73.5)" fill="black"/>
<rect x="40.5" y="73.5" width="3" height="3" transform="rotate(90 40.5 73.5)" fill="black"/>
<rect x="40.5" y="76.5" width="3" height="3" transform="rotate(90 40.5 76.5)" fill="black"/>
<rect x="64.5" y="76.5" width="3" height="3" transform="rotate(90 64.5 76.5)" fill="black"/>
<rect x="67.5" y="79.5" width="3" height="3" transform="rotate(90 67.5 79.5)" fill="black"/>
<rect x="64.5" y="79.5" width="3" height="3" transform="rotate(90 64.5 79.5)" fill="black"/>
<rect x="61.5" y="79.5" width="3" height="3" transform="rotate(90 61.5 79.5)" fill="black"/>
<rect x="58.5" y="79.5" width="3" height="3" transform="rotate(90 58.5 79.5)" fill="black"/>
<rect x="55.5" y="79.5" width="3" height="3" transform="rotate(90 55.5 79.5)" fill="black"/>
<rect x="52.5" y="79.5" width="3" height="3" transform="rotate(90 52.5 79.5)" fill="black"/>
<rect x="49.5" y="79.5" width="3" height="3" transform="rotate(90 49.5 79.5)" fill="black"/>
<rect x="46.5" y="79.5" width="3" height="3" transform="rotate(90 46.5 79.5)" fill="black"/>
<rect x="43.5" y="79.5" width="3" height="3" transform="rotate(90 43.5 79.5)" fill="black"/>
<rect x="40.5" y="79.5" width="3" height="3" transform="rotate(90 40.5 79.5)" fill="black"/>
<rect x="37.5" y="79.5" width="3" height="3" transform="rotate(90 37.5 79.5)" fill="black"/>
<rect x="70.5" y="82.5" width="3" height="3" transform="rotate(-180 70.5 82.5)" fill="black"/>
<rect x="70.5" y="79.5" width="3" height="3" transform="rotate(-180 70.5 79.5)" fill="black"/>
<rect x="70.5" y="76.5" width="3" height="3" transform="rotate(-180 70.5 76.5)" fill="black"/>
<rect x="70.5" y="73.5" width="3" height="3" transform="rotate(-180 70.5 73.5)" fill="black"/>
<rect x="70.5" y="70.5" width="3" height="3" transform="rotate(-180 70.5 70.5)" fill="black"/>
<rect x="70.5" y="67.5" width="3" height="3" transform="rotate(-180 70.5 67.5)" fill="black"/>
<rect x="70.5" y="64.5" width="3" height="3" transform="rotate(-180 70.5 64.5)" fill="black"/>
<rect x="70.5" y="61.5" width="3" height="3" transform="rotate(-180 70.5 61.5)" fill="black"/>
<rect x="70.5" y="58.5" width="3" height="3" transform="rotate(-180 70.5 58.5)" fill="black"/>
<rect x="70.5" y="55.5" width="3" height="3" transform="rotate(-180 70.5 55.5)" fill="black"/>
<rect x="70.5" y="52.5" width="3" height="3" transform="rotate(-180 70.5 52.5)" fill="black"/>
<rect x="32.5" y="125.5" width="291" height="36" fill="white"/>
<rect x="32.5" y="125.5" width="291" height="36" stroke="black" stroke-width="2"/>
<path d="M165.75 149.25V147.5H164V138.75H165.75V137H174.5V138.75H176.25V147.5H174.5V149.25H165.75ZM167.5 147.5H172.75V138.75H167.5V147.5ZM183.25 140.5H185V142.25H186.75V144H188.5V147.5H190.25V149.25H186.75V147.5H185V144H181.5V149.25H178V137H181.5V142.25H183.25V140.5ZM190.25 137V138.75H188.5V140.5H185V138.75H186.75V137H190.25Z" fill="black"/>
</svg>
