<svg width="325" height="43" viewBox="0 0 325 43" fill="none" xmlns="http://www.w3.org/2000/svg">
<path d="M18.5 42.875V36.75H12.375V30.625H6.25V24.5H0.125V18.375H6.25V12.25H12.375V6.125H18.5V0H30.75V6.125H24.625V12.25H18.5V18.375H12.375V24.5H18.5V30.625H24.625V36.75H30.75V42.875H18.5ZM85.875 0V6.125H79.75V0H85.875ZM73.625 6.125H79.75V12.25H73.625V6.125ZM67.5 12.25H73.625V18.375H67.5V12.25ZM61.375 18.375H67.5V24.5H61.375V18.375ZM55.25 24.5H61.375V30.625H55.25V24.5ZM49.125 30.625H55.25V36.75H49.125V30.625ZM43 36.75H49.125V42.875H43V36.75ZM92 42.875V0H104.25V18.375H122.625V0H134.875V42.875H122.625V24.5H104.25V42.875H92ZM159.375 42.875V6.125H147.125V0H183.875V6.125H171.625V42.875H159.375ZM190 42.875V0H202.25V6.125H208.375V12.25H214.5V6.125H220.625V0H232.875V42.875H220.625V18.375H214.5V30.625H208.375V18.375H202.25V42.875H190ZM245.125 42.875V0H257.375V36.75H281.875V42.875H245.125ZM294.125 42.875V36.75H300.25V30.625H306.375V24.5H312.5V18.375H306.375V12.25H300.25V6.125H294.125V0H306.375V6.125H312.5V12.25H318.625V18.375H324.75V24.5H318.625V30.625H312.5V36.75H306.375V42.875H294.125Z" fill="black"/>
</svg>
