<svg width="310" height="84" viewBox="0 0 310 84" fill="none" xmlns="http://www.w3.org/2000/svg">
<rect width="306" height="84" transform="translate(1.5)" fill="white"/>
<rect x="1" y="1" width="308" height="82" fill="white" stroke="black" stroke-width="2"/>
<rect x="140.5" y="17" width="2.15385" height="2.15385" fill="black"/>
<rect x="140.5" y="19.1541" width="2.15385" height="2.15385" fill="black"/>
<rect x="140.5" y="21.3076" width="2.15385" height="2.15385" fill="black"/>
<rect x="140.5" y="23.4617" width="2.15385" height="2.15385" fill="black"/>
<rect x="140.5" y="25.6152" width="2.15385" height="2.15385" fill="black"/>
<rect x="140.5" y="27.7693" width="2.15385" height="2.15385" fill="black"/>
<rect x="140.5" y="29.9231" width="2.15385" height="2.15385" fill="black"/>
<rect x="140.5" y="32.0769" width="2.15385" height="2.15385" fill="black"/>
<rect x="140.5" y="34.2307" width="2.15385" height="2.15385" fill="black"/>
<rect x="140.5" y="36.3848" width="2.15385" height="2.15385" fill="black"/>
<rect x="140.5" y="38.5383" width="2.15385" height="2.15385" fill="black"/>
<rect x="140.5" y="40.6924" width="2.15385" height="2.15385" fill="black"/>
<rect x="140.5" y="42.8459" width="2.15385" height="2.15385" fill="black"/>
<rect x="164.193" y="17" width="2.15385" height="2.15385" transform="rotate(90 164.193 17)" fill="black"/>
<rect x="162.039" y="17" width="2.15385" height="2.15385" transform="rotate(90 162.039 17)" fill="black"/>
<rect x="159.884" y="17" width="2.15385" height="2.15385" transform="rotate(90 159.884 17)" fill="black"/>
<rect x="157.73" y="17" width="2.15385" height="2.15385" transform="rotate(90 157.73 17)" fill="black"/>
<rect x="155.577" y="17" width="2.15385" height="2.15385" transform="rotate(90 155.577 17)" fill="black"/>
<rect x="153.423" y="17" width="2.15385" height="2.15385" transform="rotate(90 153.423 17)" fill="black"/>
<rect x="151.27" y="17" width="2.15385" height="2.15385" transform="rotate(90 151.27 17)" fill="black"/>
<rect x="149.116" y="17" width="2.15385" height="2.15385" transform="rotate(90 149.116 17)" fill="black"/>
<rect x="146.961" y="17" width="2.15385" height="2.15385" transform="rotate(90 146.961 17)" fill="black"/>
<rect x="144.807" y="17" width="2.15385" height="2.15385" transform="rotate(90 144.807 17)" fill="black"/>
<rect x="166.346" y="19.1541" width="2.15385" height="2.15385" transform="rotate(90 166.346 19.1541)" fill="black"/>
<rect x="146.961" y="21.3076" width="2.15385" height="2.15385" transform="rotate(90 146.961 21.3076)" fill="black"/>
<rect x="146.961" y="19.1541" width="2.15385" height="2.15385" transform="rotate(90 146.961 19.1541)" fill="black"/>
<rect x="146.961" y="23.4617" width="2.15385" height="2.15385" transform="rotate(90 146.961 23.4617)" fill="black"/>
<rect x="162.039" y="21.3076" width="2.15385" height="2.15385" transform="rotate(90 162.039 21.3076)" fill="black"/>
<rect x="162.039" y="19.1541" width="2.15385" height="2.15385" transform="rotate(90 162.039 19.1541)" fill="black"/>
<rect x="162.039" y="23.4617" width="2.15385" height="2.15385" transform="rotate(90 162.039 23.4617)" fill="black"/>
<rect x="157.73" y="21.3076" width="2.15385" height="2.15385" transform="rotate(90 157.73 21.3076)" fill="black"/>
<rect x="157.73" y="19.1541" width="2.15385" height="2.15385" transform="rotate(90 157.73 19.1541)" fill="black"/>
<rect x="157.73" y="23.4617" width="2.15385" height="2.15385" transform="rotate(90 157.73 23.4617)" fill="black"/>
<rect x="162.039" y="25.6152" width="2.15385" height="2.15385" transform="rotate(90 162.039 25.6152)" fill="black"/>
<rect x="159.884" y="25.6152" width="2.15385" height="2.15385" transform="rotate(90 159.884 25.6152)" fill="black"/>
<rect x="157.73" y="25.6152" width="2.15385" height="2.15385" transform="rotate(90 157.73 25.6152)" fill="black"/>
<rect x="155.577" y="25.6152" width="2.15385" height="2.15385" transform="rotate(90 155.577 25.6152)" fill="black"/>
<rect x="153.423" y="25.6152" width="2.15385" height="2.15385" transform="rotate(90 153.423 25.6152)" fill="black"/>
<rect x="151.27" y="25.6152" width="2.15385" height="2.15385" transform="rotate(90 151.27 25.6152)" fill="black"/>
<rect x="149.116" y="25.6152" width="2.15385" height="2.15385" transform="rotate(90 149.116 25.6152)" fill="black"/>
<rect x="146.961" y="25.6152" width="2.15385" height="2.15385" transform="rotate(90 146.961 25.6152)" fill="black"/>
<rect x="164.193" y="32.0769" width="2.15385" height="2.15385" transform="rotate(90 164.193 32.0769)" fill="black"/>
<rect x="162.039" y="32.0769" width="2.15385" height="2.15385" transform="rotate(90 162.039 32.0769)" fill="black"/>
<rect x="159.884" y="32.0769" width="2.15385" height="2.15385" transform="rotate(90 159.884 32.0769)" fill="black"/>
<rect x="157.73" y="32.0769" width="2.15385" height="2.15385" transform="rotate(90 157.73 32.0769)" fill="black"/>
<rect x="155.577" y="32.0769" width="2.15385" height="2.15385" transform="rotate(90 155.577 32.0769)" fill="black"/>
<rect x="153.423" y="32.0769" width="2.15385" height="2.15385" transform="rotate(90 153.423 32.0769)" fill="black"/>
<rect x="151.27" y="32.0769" width="2.15385" height="2.15385" transform="rotate(90 151.27 32.0769)" fill="black"/>
<rect x="149.116" y="32.0769" width="2.15385" height="2.15385" transform="rotate(90 149.116 32.0769)" fill="black"/>
<rect x="146.961" y="32.0769" width="2.15385" height="2.15385" transform="rotate(90 146.961 32.0769)" fill="black"/>
<rect x="164.193" y="34.2307" width="2.15385" height="2.15385" transform="rotate(90 164.193 34.2307)" fill="black"/>
<rect x="146.961" y="34.2307" width="2.15385" height="2.15385" transform="rotate(90 146.961 34.2307)" fill="black"/>
<rect x="164.193" y="36.3848" width="2.15385" height="2.15385" transform="rotate(90 164.193 36.3848)" fill="black"/>
<rect x="146.961" y="36.3848" width="2.15385" height="2.15385" transform="rotate(90 146.961 36.3848)" fill="black"/>
<rect x="164.193" y="38.5383" width="2.15385" height="2.15385" transform="rotate(90 164.193 38.5383)" fill="black"/>
<rect x="146.961" y="38.5383" width="2.15385" height="2.15385" transform="rotate(90 146.961 38.5383)" fill="black"/>
<rect x="146.961" y="40.6924" width="2.15385" height="2.15385" transform="rotate(90 146.961 40.6924)" fill="black"/>
<rect x="164.193" y="40.6924" width="2.15385" height="2.15385" transform="rotate(90 164.193 40.6924)" fill="black"/>
<rect x="166.346" y="42.8459" width="2.15385" height="2.15385" transform="rotate(90 166.346 42.8459)" fill="black"/>
<rect x="164.193" y="42.8459" width="2.15385" height="2.15385" transform="rotate(90 164.193 42.8459)" fill="black"/>
<rect x="162.039" y="42.8459" width="2.15385" height="2.15385" transform="rotate(90 162.039 42.8459)" fill="black"/>
<rect x="159.884" y="42.8459" width="2.15385" height="2.15385" transform="rotate(90 159.884 42.8459)" fill="black"/>
<rect x="157.73" y="42.8459" width="2.15385" height="2.15385" transform="rotate(90 157.73 42.8459)" fill="black"/>
<rect x="155.577" y="42.8459" width="2.15385" height="2.15385" transform="rotate(90 155.577 42.8459)" fill="black"/>
<rect x="153.423" y="42.8459" width="2.15385" height="2.15385" transform="rotate(90 153.423 42.8459)" fill="black"/>
<rect x="151.27" y="42.8459" width="2.15385" height="2.15385" transform="rotate(90 151.27 42.8459)" fill="black"/>
<rect x="149.116" y="42.8459" width="2.15385" height="2.15385" transform="rotate(90 149.116 42.8459)" fill="black"/>
<rect x="146.961" y="42.8459" width="2.15385" height="2.15385" transform="rotate(90 146.961 42.8459)" fill="black"/>
<rect x="144.807" y="42.8459" width="2.15385" height="2.15385" transform="rotate(90 144.807 42.8459)" fill="black"/>
<rect x="168.5" y="45" width="2.15385" height="2.15385" transform="rotate(-180 168.5 45)" fill="black"/>
<rect x="168.5" y="42.8459" width="2.15385" height="2.15385" transform="rotate(-180 168.5 42.8459)" fill="black"/>
<rect x="168.5" y="40.6924" width="2.15385" height="2.15385" transform="rotate(-180 168.5 40.6924)" fill="black"/>
<rect x="168.5" y="38.5383" width="2.15385" height="2.15385" transform="rotate(-180 168.5 38.5383)" fill="black"/>
<rect x="168.5" y="36.3848" width="2.15385" height="2.15385" transform="rotate(-180 168.5 36.3848)" fill="black"/>
<rect x="168.5" y="34.2307" width="2.15385" height="2.15385" transform="rotate(-180 168.5 34.2307)" fill="black"/>
<rect x="168.5" y="32.0769" width="2.15385" height="2.15385" transform="rotate(-180 168.5 32.0769)" fill="black"/>
<rect x="168.5" y="29.9231" width="2.15385" height="2.15385" transform="rotate(-180 168.5 29.9231)" fill="black"/>
<rect x="168.5" y="27.7693" width="2.15385" height="2.15385" transform="rotate(-180 168.5 27.7693)" fill="black"/>
<rect x="168.5" y="25.6152" width="2.15385" height="2.15385" transform="rotate(-180 168.5 25.6152)" fill="black"/>
<rect x="168.5" y="23.4617" width="2.15385" height="2.15385" transform="rotate(-180 168.5 23.4617)" fill="black"/>
<path d="M25 65.25V63.5H23.25V61.75H21.5V56.5H23.25V54.75H25V53H32V54.75H33.75V56.5H30.25V54.75H26.75V56.5H25V61.75H26.75V63.5H30.25V61.75H33.75V63.5H32V65.25H25ZM37.25 65.25V63.5H35.5V58.25H37.25V56.5H46V58.25H47.75V63.5H46V65.25H37.25ZM39 63.5H44.25V58.25H39V63.5ZM49.5 65.25V63.5H51.25V61.75H53V60H51.25V58.25H49.5V56.5H53V58.25H54.75V60H56.5V58.25H58.25V56.5H61.75V58.25H60V60H58.25V61.75H60V63.5H61.75V65.25H58.25V63.5H56.5V61.75H54.75V63.5H53V65.25H49.5ZM75.75 58.25V63.5H74V65.25H67V67H63.5V56.5H67V58.25H68.75V60H67V63.5H72.25V58.25H68.75V56.5H74V58.25H75.75ZM79.25 65.25V63.5H77.5V61.75H79.25V60H86.25V58.25H79.25V56.5H88V58.25H89.75V65.25H79.25ZM81 63.5H86.25V61.75H81V63.5ZM91.5 65.25V56.5H95V60H100.25V56.5H103.75V65.25H100.25V61.75H95V65.25H91.5ZM109 61.75H110.75V63.5H109V65.25H105.5V56.5H109V61.75ZM117.75 56.5V65.25H114.25V60H112.5V58.25H114.25V56.5H117.75ZM110.75 60H112.5V61.75H110.75V60ZM124.75 65.25V58.25H121.25V56.5H131.75V58.25H128.25V65.25H124.75ZM133.5 65.25V56.5H137V60H144V61.75H145.75V63.5H144V65.25H133.5ZM137 63.5H142.25V61.75H137V63.5ZM161.5 65.25V56.5H165V60H170.25V56.5H173.75V65.25H170.25V61.75H165V65.25H161.5ZM177.25 65.25V63.5H175.5V61.75H177.25V60H184.25V58.25H177.25V56.5H186V58.25H187.75V65.25H177.25ZM179 63.5H184.25V61.75H179V63.5ZM203.5 65.25V56.5H215.75V65.25H212.25V58.25H207V65.25H203.5ZM219.25 65.25V63.5H217.5V61.75H219.25V60H226.25V58.25H219.25V56.5H228V58.25H229.75V65.25H219.25ZM221 63.5H226.25V61.75H221V63.5ZM236.75 58.25V60H235V65.25H231.5V56.5H235V58.25H236.75ZM243.75 56.5V65.25H240.25V60H238.5V58.25H240.25V56.5H243.75ZM236.75 60H238.5V63.5H236.75V60ZM245.5 65.25V61.75H247.25V60H245.5V58.25H247.25V56.5H257.75V65.25H254.25V61.75H249V65.25H245.5ZM249 60H254.25V58.25H249V60ZM264.75 65.25V58.25H261.25V56.5H271.75V58.25H268.25V65.25H264.75ZM273.5 65.25V56.5H277V60H284V61.75H285.75V63.5H284V65.25H273.5ZM277 63.5H282.25V61.75H277V63.5Z" fill="black"/>
</svg>
